<svg width="19" height="23" viewBox="0 0 19 23" fill="none" xmlns="http://www.w3.org/2000/svg">
<path d="M15.769 12.3011C15.7907 10.6201 16.6934 9.02947 18.1256 8.149C17.2221 6.85868 15.7088 6.04058 14.1344 5.99132C12.4552 5.81506 10.8272 6.99615 9.97149 6.99615C9.09922 6.99615 7.78172 6.00882 6.36299 6.03801C4.51374 6.09776 2.78977 7.14914 1.89007 8.76588C-0.0439276 12.1143 1.39866 17.0354 3.25127 19.742C4.17817 21.0673 5.26145 22.5478 6.6789 22.4953C8.06596 22.4377 8.584 21.6108 10.2583 21.6108C11.9171 21.6108 12.4031 22.4953 13.8493 22.4619C15.3377 22.4377 16.2754 21.1306 17.1698 19.7927C17.8358 18.8484 18.3483 17.8047 18.6882 16.7002C16.9391 15.9604 15.771 14.2002 15.769 12.3011Z" fill="#1C3F39"/>
<path d="M13.0373 4.21132C13.8489 3.23711 14.2487 1.98494 14.1518 0.720703C12.912 0.850924 11.7668 1.44348 10.9443 2.38031C10.14 3.29564 9.72143 4.52579 9.80056 5.7417C11.0408 5.75447 12.2601 5.17798 13.0373 4.21132Z" fill="#1C3F39"/>
</svg>
