<svg width="11" height="16" viewBox="0 0 11 16" fill="none" xmlns="http://www.w3.org/2000/svg">
<path d="M5.07936 10.9206C5.88735 10.9197 6.66197 10.5983 7.23331 10.027C7.80465 9.45563 8.12604 8.68101 8.12698 7.87302V3.04762C8.12698 2.23934 7.80589 1.46417 7.23435 0.892627C6.66281 0.321088 5.88764 0 5.07936 0C4.27108 0 3.4959 0.321088 2.92437 0.892627C2.35283 1.46417 2.03174 2.23934 2.03174 3.04762V7.87302C2.03268 8.68101 2.35407 9.45563 2.9254 10.027C3.49674 10.5983 4.27137 10.9197 5.07936 10.9206Z" fill="#1C3F39"/>
<path d="M9.65079 5.07935C9.51608 5.07935 9.38688 5.13286 9.29163 5.22812C9.19637 5.32337 9.14286 5.45257 9.14286 5.58728V7.873C9.14286 8.9507 8.71474 9.98427 7.95269 10.7463C7.19064 11.5084 6.15707 11.9365 5.07936 11.9365C4.00166 11.9365 2.96809 11.5084 2.20604 10.7463C1.44399 9.98427 1.01587 8.9507 1.01587 7.873V5.58728C1.01587 5.45257 0.962358 5.32337 0.867102 5.22812C0.771845 5.13286 0.64265 5.07935 0.507936 5.07935C0.373223 5.07935 0.244028 5.13286 0.148771 5.22812C0.0535147 5.32337 0 5.45257 0 5.58728V7.873C0.00151839 9.13176 0.469754 10.3452 1.31415 11.2788C2.15855 12.2123 3.31913 12.7996 4.57143 12.927V14.9841H2.53968C2.40497 14.9841 2.27577 15.0376 2.18052 15.1329C2.08526 15.2281 2.03175 15.3573 2.03175 15.492C2.03175 15.6268 2.08526 15.756 2.18052 15.8512C2.27577 15.9465 2.40497 16 2.53968 16H7.61905C7.75376 16 7.88296 15.9465 7.97821 15.8512C8.07347 15.756 8.12698 15.6268 8.12698 15.492C8.12698 15.3573 8.07347 15.2281 7.97821 15.1329C7.88296 15.0376 7.75376 14.9841 7.61905 14.9841H5.5873V12.927C6.83963 12.7996 8.00023 12.2124 8.84464 11.2788C9.68905 10.3453 10.1573 9.13178 10.1587 7.873V5.58728C10.1587 5.45257 10.1052 5.32337 10.01 5.22812C9.9147 5.13286 9.78551 5.07935 9.65079 5.07935Z" fill="#1C3F39"/>
</svg>
