<svg width="18" height="16" viewBox="0 0 18 16" fill="none" xmlns="http://www.w3.org/2000/svg">
<path d="M7.97277 2.46608C7.97277 2.35779 7.90706 2.26033 7.80667 2.21972L2.49149 0.0694907C2.31679 -0.00118547 2.12607 0.127394 2.12607 0.315854V10.6445C2.12607 10.7498 2.18825 10.8452 2.28461 10.8877L7.59979 13.2312C7.77545 13.3086 7.97277 13.18 7.97277 12.988V2.46608ZM14.8825 0.266033C14.8825 0.0766872 14.6901 -0.0519198 14.5152 0.0204533L9.19998 2.219C9.10061 2.26011 9.0358 2.35705 9.0358 2.46458V12.9846C9.0358 13.1775 9.23475 13.3061 9.41062 13.227L14.7258 10.8351C14.8212 10.7922 14.8825 10.6974 14.8825 10.5928V0.266033Z" fill="#1C3F39"/>
<path d="M16.4771 0.612488C16.3361 0.612488 16.2009 0.668487 16.1012 0.768166C16.0015 0.867845 15.9455 1.00304 15.9455 1.14401V11.5086L8.50429 14.9103L1.06304 11.5086V1.14401C1.06304 1.00304 1.00704 0.867845 0.907358 0.768166C0.807679 0.668487 0.672485 0.612488 0.531518 0.612488C0.390551 0.612488 0.255357 0.668487 0.155678 0.768166C0.0559991 0.867845 0 1.00304 0 1.14401L0 11.8541C0.00168959 11.956 0.0326516 12.0553 0.0891953 12.1401C0.145739 12.2249 0.225479 12.2917 0.318911 12.3325L8.29168 15.9468L8.50429 15.9999L8.71689 15.9468L16.6897 12.3325C16.7831 12.2917 16.8628 12.2249 16.9194 12.1401C16.9759 12.0553 17.0069 11.956 17.0086 11.8541V1.14401C17.0086 1.00304 16.9526 0.867845 16.8529 0.768166C16.7532 0.668487 16.618 0.612488 16.4771 0.612488V0.612488Z" fill="#1C3F39"/>
</svg>
