<svg width="18" height="18" viewBox="0 0 18 18" fill="none" xmlns="http://www.w3.org/2000/svg">
<path d="M0.923828 2.79931C0.923828 2.2554 1.11484 1.80668 1.49685 1.45315C1.87886 1.09961 2.3755 0.922852 2.98672 0.922852C3.58704 0.922852 4.07273 1.09689 4.44384 1.445C4.82585 1.80397 5.01686 2.27171 5.01686 2.84826C5.01686 3.3704 4.83132 3.80551 4.46021 4.15362C4.0782 4.5126 3.57611 4.69208 2.95397 4.69208H2.9376C2.33728 4.69208 1.85159 4.5126 1.48048 4.15362C1.10937 3.79465 0.923828 3.3432 0.923828 2.79931ZM1.13667 17.0767V6.17693H4.77128V17.0767H1.13667ZM6.78505 17.0767H10.4197V10.9905C10.4197 10.6097 10.4633 10.316 10.5506 10.1093C10.7034 9.73947 10.9354 9.42673 11.2465 9.1711C11.5575 8.91547 11.9477 8.78765 12.4171 8.78765C13.6395 8.78765 14.2508 9.60894 14.2508 11.2515V17.0767H17.8854V10.8273C17.8854 9.21733 17.5034 7.99628 16.7393 7.16411C15.9753 6.33194 14.9657 5.91586 13.7105 5.91586C12.3025 5.91586 11.2055 6.51959 10.4197 7.72705V7.75968H10.4033L10.4197 7.72705V6.17693H6.78505C6.80688 6.52502 6.8178 7.60738 6.8178 9.42402C6.8178 11.2406 6.80688 13.7915 6.78505 17.0767Z" fill="#1C3F39"/>
</svg>
