<svg width="36" height="26" viewBox="0 0 36 26" fill="none" xmlns="http://www.w3.org/2000/svg">
<path d="M35.6147 18.9053C30.6333 18.2591 24.0046 18.5316 17.8074 25.5004C11.6101 18.5316 4.98135 18.2591 1.43051e-06 18.9053L3.45165 15.3782C10.2922 14.4126 15.8854 17.4156 17.8074 19.0377C19.7293 17.4156 25.3225 14.4126 32.1631 15.3782L35.6147 18.9053Z" fill="#F2AC0D"/>
<path d="M21.1938 22.3466C20.0591 23.2023 18.9262 24.2421 17.8074 25.5003C16.6885 24.2421 15.5556 23.2023 14.4209 22.3466L17.8074 19.0376L21.1938 22.3466Z" fill="#D29303"/>
<path d="M29.3665 13.3946C29.3405 12.1579 27.8826 9.21609 22.845 6.24819C21.0553 5.19381 17.8699 2.96789 17.8074 0C17.7449 2.96789 14.5594 5.19381 12.7698 6.24819C7.73216 9.21609 6.27425 12.1579 6.24822 13.3946C8.51319 12.965 13.9413 13.7851 17.8074 17.1044C21.6734 13.7851 27.1016 12.965 29.3665 13.3946Z" fill="#26534C"/>
</svg>
