<svg width="63" height="17" viewBox="0 0 63 17" fill="none" xmlns="http://www.w3.org/2000/svg">
<path d="M12.322 16.0533H9.47538V10.3133C9.3276 10.5933 9.14094 10.8617 8.91538 11.1183C8.6976 11.375 8.43705 11.6122 8.13372 11.83C7.83816 12.0478 7.49983 12.2189 7.11871 12.3433C6.74538 12.4678 6.33316 12.53 5.88205 12.53C4.94094 12.53 4.08927 12.3122 3.32705 11.8767C2.5726 11.4333 1.96983 10.745 1.51871 9.81167C1.07538 8.87056 0.853714 7.64556 0.853714 6.13667C0.853714 4.81444 1.04427 3.69833 1.42538 2.78833C1.80649 1.87056 2.35094 1.17833 3.05871 0.711666C3.77427 0.237222 4.62594 0 5.61371 0C6.08816 0 6.52371 0.0622216 6.92038 0.186665C7.32483 0.303333 7.68649 0.462778 8.00538 0.665C8.33205 0.867222 8.61594 1.09667 8.85705 1.35333C9.09816 1.61 9.30038 1.87055 9.46372 2.135L9.47538 0.233333H12.322V16.0533ZM6.51205 10.4067C7.17316 10.4067 7.72538 10.2161 8.16871 9.835C8.61205 9.44611 8.9426 8.93278 9.16038 8.295C9.37816 7.64944 9.48705 6.94556 9.48705 6.18333C9.48705 5.00111 9.23816 4.02889 8.74038 3.26667C8.25038 2.49667 7.5076 2.11167 6.51205 2.11167C5.66427 2.11167 4.95649 2.45 4.38871 3.12667C3.82871 3.80333 3.54871 4.82222 3.54871 6.18333C3.54871 7.53667 3.80927 8.57889 4.33038 9.31C4.85927 10.0411 5.58649 10.4067 6.51205 10.4067Z" fill="#1C3F39"/>
<path d="M19.9551 12.53C19.364 12.53 18.7924 12.4444 18.2401 12.2733C17.6957 12.0944 17.2057 11.8378 16.7701 11.5033C16.3346 11.1611 15.9885 10.7411 15.7318 10.2433C15.4751 9.74556 15.3468 9.16611 15.3468 8.505V0.233333H18.1935V8.17833C18.1935 8.83167 18.3996 9.36833 18.8118 9.78833C19.2318 10.2083 19.8618 10.4183 20.7018 10.4183C21.464 10.4183 22.0746 10.22 22.5335 9.82333C22.9924 9.41889 23.2218 8.83944 23.2218 8.085V0.233333H26.0451V12.2967H23.8635L23.5485 9.94C23.4007 10.6011 23.1401 11.1222 22.7668 11.5033C22.4013 11.8767 21.9696 12.1411 21.4718 12.2967C20.9818 12.4522 20.4763 12.53 19.9551 12.53Z" fill="#1C3F39"/>
<path d="M29.1937 12.2967V0.233333H31.912V2.84667C32.1065 2.24778 32.3826 1.73833 32.7404 1.31833C33.1059 0.890555 33.5337 0.563888 34.0237 0.338332C34.5137 0.112777 35.0465 0 35.622 0C35.762 0 35.8981 0.0077774 36.0304 0.0233328C36.1626 0.0388881 36.2598 0.0661102 36.322 0.104999V2.82333C36.2365 2.78444 36.1237 2.75722 35.9837 2.74167C35.8515 2.72611 35.7348 2.71833 35.6337 2.71833C35.0504 2.67167 34.5331 2.695 34.082 2.78833C33.6387 2.88167 33.2615 3.04111 32.9504 3.26667C32.647 3.48444 32.4176 3.76444 32.262 4.10667C32.1065 4.44111 32.0287 4.83389 32.0287 5.285V12.2967H29.1937Z" fill="#1C3F39"/>
<path d="M41.681 12.53C40.911 12.53 40.2188 12.39 39.6044 12.11C38.9977 11.8222 38.5194 11.4139 38.1694 10.885C37.8271 10.3483 37.656 9.69889 37.656 8.93667C37.656 7.60667 38.1344 6.60333 39.091 5.92667C40.0555 5.25 41.5916 4.89611 43.6994 4.865L45.496 4.81833V4.00167C45.496 3.36389 45.3055 2.86611 44.9244 2.50833C44.551 2.14278 43.9677 1.96389 43.1744 1.97167C42.591 1.97944 42.0544 2.11944 41.5644 2.39167C41.0821 2.65611 40.7633 3.10333 40.6077 3.73333H38.1927C38.2394 2.90889 38.4766 2.22056 38.9044 1.66833C39.3399 1.10833 39.9349 0.692222 40.6894 0.42C41.4438 0.14 42.3149 0 43.3027 0C44.4538 0 45.391 0.151666 46.1144 0.454998C46.8377 0.758332 47.3705 1.19778 47.7127 1.77333C48.0549 2.34111 48.226 3.02944 48.226 3.83833V12.2967H45.8344L45.6127 10.1267C45.1771 11.0367 44.6249 11.6667 43.956 12.0167C43.2949 12.3589 42.5366 12.53 41.681 12.53ZM42.6027 10.605C42.9527 10.605 43.2988 10.5428 43.641 10.4183C43.9833 10.2861 44.2944 10.1111 44.5744 9.89333C44.8544 9.66778 45.076 9.41889 45.2394 9.14667C45.4105 8.87444 45.496 8.59056 45.496 8.295V6.39333L44.0144 6.41667C43.2833 6.42444 42.6455 6.50222 42.101 6.65C41.5566 6.79778 41.1288 7.035 40.8177 7.36167C40.5144 7.68056 40.3627 8.10833 40.3627 8.645C40.3627 9.25944 40.5766 9.74167 41.0044 10.0917C41.4321 10.4339 41.9649 10.605 42.6027 10.605Z" fill="#1C3F39"/>
<path d="M51.5472 12.2967V0.233333H54.3239V1.96C54.5105 1.64889 54.7633 1.34944 55.0822 1.06167C55.4089 0.773888 55.8094 0.540556 56.2839 0.361667C56.7583 0.182778 57.3144 0.0933333 57.9522 0.0933333C58.6989 0.0933333 59.3911 0.241111 60.0289 0.536667C60.6744 0.832222 61.1917 1.295 61.5805 1.925C61.9772 2.555 62.1755 3.36778 62.1755 4.36333V12.2967H59.3289V4.70167C59.3289 3.90833 59.1111 3.32111 58.6755 2.94C58.24 2.55111 57.6917 2.35667 57.0305 2.35667C56.5794 2.35667 56.1517 2.43444 55.7472 2.59C55.3428 2.73778 55.0122 2.96722 54.7555 3.27833C54.5067 3.58167 54.3822 3.96278 54.3822 4.42167V12.2967H51.5472Z" fill="#1C3F39"/>
</svg>
