<svg width="22" height="18" viewBox="0 0 22 18" fill="none" xmlns="http://www.w3.org/2000/svg">
<path d="M21.5 2.83522C20.7191 3.15954 19.8869 3.37451 19.0194 3.47889C19.9119 2.97439 20.5931 2.18161 20.9133 1.22605C20.0812 1.69575 19.1624 2.02753 18.1833 2.21267C17.3932 1.41617 16.2671 0.922852 15.0386 0.922852C12.6551 0.922852 10.7362 2.75445 10.7362 4.99983C10.7362 5.32291 10.7651 5.63356 10.8359 5.9293C7.25675 5.76403 4.08969 4.13995 1.96212 1.66593C1.59069 2.27605 1.37281 2.97439 1.37281 3.72617C1.37281 5.13776 2.14062 6.38906 3.28512 7.1135C2.59344 7.10108 1.91487 6.91096 1.34 6.61149C1.34 6.62392 1.34 6.64007 1.34 6.65622C1.34 8.63693 2.83231 10.2821 4.78925 10.6611C4.43881 10.7518 4.05687 10.7953 3.6605 10.7953C3.38487 10.7953 3.10662 10.7804 2.84544 10.7258C3.40325 12.3399 4.98613 13.5266 6.86825 13.5651C5.4035 14.6499 3.54369 15.3035 1.53031 15.3035C1.17725 15.3035 0.838625 15.2886 0.5 15.2476C2.40706 16.4119 4.66719 17.0767 7.1045 17.0767C15.0267 17.0767 19.358 10.8637 19.358 5.47824C19.358 5.29806 19.3514 5.12409 19.3422 4.95137C20.1967 4.37729 20.9146 3.66031 21.5 2.83522Z" fill="#1C3F39"/>
</svg>
